HIERARCHY
ROOT Hips
{
	OFFSET -0.001795 -0.223333 0.028219
	CHANNELS 6 Xposition Yposition Zposition Zrotation Yrotation Xrotation 
	JOINT LeftUpLeg
	{
		OFFSET 0.069520 -0.091406 -0.006815
		CHANNELS 3 Zrotation Yrotation Xrotation
		JOINT LeftLeg
		{
			OFFSET 0.034277 -0.375199 -0.004496
			CHANNELS 3 Zrotation Yrotation Xrotation
			JOINT LeftFoot
			{
				OFFSET -0.013596 -0.397961 -0.043693
				CHANNELS 3 Zrotation Yrotation Xrotation
				JOINT LeftToe
				{
					OFFSET 0.026358 -0.055791 0.119288
					CHANNELS 3 Zrotation Yrotation Xrotation
					End Site
					{
						OFFSET 0.000000 0.000000 0.000000
					}
				}
			}
		}
	}
	JOINT RightUpLeg
	{
		OFFSET -0.067670 -0.090522 -0.004320
		CHANNELS 3 Zrotation Yrotation Xrotation
		JOINT RightLeg
		{
			OFFSET -0.038290 -0.382569 -0.008850
			CHANNELS 3 Zrotation Yrotation Xrotation
			JOINT RightFoot
			{
				OFFSET 0.015774 -0.398415 -0.042312
				CHANNELS 3 Zrotation Yrotation Xrotation
				JOINT RightToe
				{
					OFFSET -0.025372 -0.048144 0.123348
					CHANNELS 3 Zrotation Yrotation Xrotation
					End Site
					{
						OFFSET 0.000000 0.000000 0.000000
					}
				}
			}
		}
	}
	JOINT Spine
	{
		OFFSET -0.002533 0.108963 -0.026696
		CHANNELS 3 Zrotation Yrotation Xrotation
		JOINT Spine1
		{
			OFFSET 0.005487 0.135180 0.001092
			CHANNELS 3 Zrotation Yrotation Xrotation
			JOINT Spine2
			{
				OFFSET 0.001457 0.052922 0.025425
				CHANNELS 3 Zrotation Yrotation Xrotation
				JOINT Neck
				{
					OFFSET -0.002778 0.213870 -0.042857
					CHANNELS 3 Zrotation Yrotation Xrotation
					JOINT Head
					{
						OFFSET 0.005152 0.064970 0.051349
						CHANNELS 3 Zrotation Yrotation Xrotation
						End Site
						{
							OFFSET 0.000000 0.000000 0.000000
						}
					}
				}
				JOINT LeftShoulder
				{
					OFFSET 0.078845 0.121749 -0.034090
					CHANNELS 3 Zrotation Yrotation Xrotation
					JOINT LeftArm
					{
						OFFSET 0.090977 0.030469 -0.008868
						CHANNELS 3 Zrotation Yrotation Xrotation
						JOINT LeftForeArm
						{
							OFFSET 0.259612 -0.012772 -0.027456
							CHANNELS 3 Zrotation Yrotation Xrotation
							JOINT LeftHand
							{
								OFFSET 0.249234 0.008986 -0.001171
								CHANNELS 3 Zrotation Yrotation Xrotation
								End Site
								{
									OFFSET 0.000000 0.000000 0.000000
								}
							}
						}
					}
				}
				JOINT RightShoulder
				{
					OFFSET -0.081759 0.118833 -0.038615
					CHANNELS 3 Zrotation Yrotation Xrotation
					JOINT RightArm
					{
						OFFSET -0.096012 0.032551 -0.009143
						CHANNELS 3 Zrotation Yrotation Xrotation
						JOINT RightForeArm
						{
							OFFSET -0.253742 -0.013329 -0.021401
							CHANNELS 3 Zrotation Yrotation Xrotation
							JOINT RightHand
							{
								OFFSET -0.255298 0.007772 -0.005559
								CHANNELS 3 Zrotation Yrotation Xrotation
								End Site
								{
									OFFSET 0.000000 0.000000 0.000000
								}
							}
						}
					}
				}
			}
		}
	}
}
MOTION
Frames: 6
Frame Time: 0.050000
0.006576 0.949439 0.021839 2.595632 2.689410 9.259150 4.149111 -0.809210 -11.488963 -0.256524 -0.078396 3.098263 -2.027582 1.802528 12.582742 0.000000 0.000000 0.000000 -6.660183 0.669474 -10.015150 -5.638363 0.357225 -2.690487 2.161051 -1.759519 15.870080 0.000000 0.000000 0.000000 4.424817 -0.016537 -2.129969 0.328956 -0.025587 -3.500522 -10.398238 6.908156 4.971958 17.347481 -8.867938 -15.345899 0.000000 0.000000 0.000000 -2.065933 -14.160844 4.289514 -21.844924 -30.666349 1.873164 -74.033089 -76.653686 60.984450 0.000000 0.000000 0.000000 2.243082 2.086614 0.956343 42.631668 20.552624 3.260502 114.194832 76.854061 112.018192 0.000000 0.000000 0.000000 
0.006565 0.949635 0.019881 2.508755 1.912846 9.725853 4.276904 -0.827913 -12.067218 -0.409613 -0.059769 3.204859 -1.642612 2.401862 12.771447 0.000000 0.000000 0.000000 -6.585504 0.725265 -10.781663 -5.722412 0.343860 -2.835772 2.564527 -1.268994 16.144355 0.000000 0.000000 0.000000 4.606288 -0.093213 -1.283697 0.109281 0.060850 -3.457336 -10.871669 6.800605 4.972343 18.413724 -9.049886 -17.036493 0.000000 0.000000 0.000000 -1.623524 -15.848837 4.923094 -21.277982 -30.886096 1.801743 -61.301197 -74.128969 47.862504 0.000000 0.000000 0.000000 1.692737 3.588015 1.509946 43.135340 21.946651 3.871417 91.357001 77.828686 88.363770 0.000000 0.000000 0.000000 
0.006732 0.949911 0.017723 2.532326 1.299210 10.147957 4.262677 -0.858112 -12.681024 -0.520572 -0.049012 3.392819 -1.350758 2.874981 12.987302 0.000000 0.000000 0.000000 -6.582686 0.789765 -11.924463 -5.893983 0.413999 -2.150597 2.835835 -0.916981 16.215523 0.000000 0.000000 0.000000 4.528858 -0.170202 -0.349295 0.234563 -0.000415 -3.379403 -11.359890 6.336434 5.042487 18.974929 -9.093031 -18.153728 0.000000 0.000000 0.000000 -1.391864 -17.629726 5.589948 -21.616568 -31.467235 1.935806 -48.636081 -70.822019 35.630632 0.000000 0.000000 0.000000 1.531843 4.831860 1.969348 43.707419 23.153079 4.397507 70.667620 77.073090 66.965018 0.000000 0.000000 0.000000 
0.006922 0.950188 0.015204 2.535456 0.935426 10.533131 4.359052 -0.871029 -13.084728 -0.746399 -0.011076 3.168082 -1.201946 3.157335 13.249543 0.000000 0.000000 0.000000 -6.498096 0.838884 -12.651193 -6.148029 0.439053 -2.065941 3.038752 -0.717026 16.474094 0.000000 0.000000 0.000000 4.302905 -0.269256 0.961464 0.724681 -0.223802 -3.081492 -12.040448 5.396376 4.592852 19.263174 -9.228772 -18.386656 0.000000 0.000000 0.000000 -1.666898 -20.068910 6.509891 -21.761393 -31.954922 2.070762 -37.140189 -66.292714 25.250321 0.000000 0.000000 0.000000 2.285967 6.979415 2.837222 44.487494 24.976417 5.198845 43.989707 74.918136 40.983548 0.000000 0.000000 0.000000 
0.007075 0.950487 0.011378 2.641786 0.429221 11.038006 4.452472 -0.905472 -13.936182 -1.162117 0.040843 3.378212 -0.980183 3.557268 13.581838 0.000000 0.000000 0.000000 -6.483386 0.907514 -13.812807 -6.504516 0.503540 -1.649350 3.293650 -0.449504 16.723884 0.000000 0.000000 0.000000 3.978521 -0.361850 2.327293 1.075805 -0.368730 -3.306096 -12.607538 4.983991 5.039252 19.451640 -9.085329 -19.381768 0.000000 0.000000 0.000000 -2.082781 -22.652299 7.513659 -22.412997 -34.468612 2.526144 -20.299702 -60.038327 12.686239 0.000000 0.000000 0.000000 3.347424 8.808356 3.644376 45.892773 28.182010 6.655097 18.659004 70.309128 18.659183 0.000000 0.000000 0.000000 
0.007201 0.950130 0.006276 2.513397 -0.018544 11.855477 4.835879 -0.932328 -15.161782 -1.580280 0.097226 3.492296 -0.719849 3.974183 13.784429 0.000000 0.000000 0.000000 -6.360846 1.004967 -15.299784 -6.622132 0.532539 -1.394316 3.516974 -0.240600 17.004855 0.000000 0.000000 0.000000 3.590944 -0.454172 3.815326 1.824539 -0.684597 -3.407850 -13.079751 4.032370 5.290091 19.805276 -9.033418 -20.472989 0.000000 0.000000 0.000000 -3.022898 -25.468278 8.767195 -22.361591 -37.418235 2.962410 -6.788711 -51.334940 4.470282 0.000000 0.000000 0.000000 5.104608 11.325665 4.795351 46.360928 32.565025 8.451856 2.675159 62.265384 5.802270 0.000000 0.000000 0.000000 
